<mxfile host="65bd71144e">
    <diagram id="Yb5UKVVWzB1k4JtF9hd5" name="PÃ¡gina-1">
        <mxGraphModel dx="189" dy="242" grid="1" gridSize="10" guides="1" tooltips="1" connect="1" arrows="1" fold="1" page="1" pageScale="1" pageWidth="850" pageHeight="1100" math="0" shadow="0">
            <root>
                <mxCell id="0"/>
                <mxCell id="1" parent="0"/>
                <mxCell id="2" value="Prestamo" style="swimlane;fontStyle=1;align=center;verticalAlign=top;childLayout=stackLayout;horizontal=1;startSize=26;horizontalStack=0;resizeParent=1;resizeParentMax=0;resizeLast=0;collapsible=1;marginBottom=0;" parent="1" vertex="1">
                    <mxGeometry x="295" y="530" width="260" height="280" as="geometry"/>
                </mxCell>
                <mxCell id="3" value="- fecha : string&#10;- prestamo : double&#10;- porcentaje : double&#10;- semana : double" style="text;strokeColor=none;fillColor=default;align=left;verticalAlign=top;spacingLeft=4;spacingRight=4;overflow=hidden;rotatable=0;points=[[0,0.5],[1,0.5]];portConstraint=eastwest;" parent="2" vertex="1">
                    <mxGeometry y="26" width="260" height="64" as="geometry"/>
                </mxCell>
                <mxCell id="4" value="" style="line;strokeWidth=1;fillColor=none;align=left;verticalAlign=middle;spacingTop=-1;spacingLeft=3;spacingRight=3;rotatable=0;labelPosition=right;points=[];portConstraint=eastwest;strokeColor=inherit;" parent="2" vertex="1">
                    <mxGeometry y="90" width="260" height="8" as="geometry"/>
                </mxCell>
                <mxCell id="5" value="+ Prestamo( )&#10;+ setFecha (fecha : string)&#10;+ setPrestamo(prestamo : double)&#10;+ setPorcentaje(porcentaje : double)&#10;+ setSemana(semana : double)&#10;+ getFecha( ) : string&#10;+ getPrestamo( ) : double&#10;+ getPorcentaje( ) : double&#10;+ getSemana( ) : double&#10;+ Interes ( )&#10;+ PrestamoTotal( )&#10;+ toString( )" style="text;strokeColor=none;fillColor=default;align=left;verticalAlign=top;spacingLeft=4;spacingRight=4;overflow=hidden;rotatable=0;points=[[0,0.5],[1,0.5]];portConstraint=eastwest;" parent="2" vertex="1">
                    <mxGeometry y="98" width="260" height="182" as="geometry"/>
                </mxCell>
                <mxCell id="10" value="" style="edgeStyle=none;html=1;entryX=0.5;entryY=0;entryDx=0;entryDy=0;" parent="1" source="6" target="2" edge="1">
                    <mxGeometry relative="1" as="geometry">
                        <mxPoint x="425" y="490" as="targetPoint"/>
                    </mxGeometry>
                </mxCell>
                <mxCell id="6" value="Acreedor.h" style="swimlane;fontStyle=1;align=center;verticalAlign=top;childLayout=stackLayout;horizontal=1;startSize=26;horizontalStack=0;resizeParent=1;resizeParentMax=0;resizeLast=0;collapsible=1;marginBottom=0;fillColor=default;gradientColor=none;" parent="1" vertex="1">
                    <mxGeometry x="320" y="80" width="210" height="340" as="geometry"/>
                </mxCell>
                <mxCell id="7" value="- nombre : string&#10;- apellido : string&#10;- clave : string&#10;- telefono : string&#10;- correo : string&#10;- movimiento : int" style="text;strokeColor=none;fillColor=default;align=left;verticalAlign=top;spacingLeft=4;spacingRight=4;overflow=hidden;rotatable=0;points=[[0,0.5],[1,0.5]];portConstraint=eastwest;" parent="6" vertex="1">
                    <mxGeometry y="26" width="210" height="94" as="geometry"/>
                </mxCell>
                <mxCell id="8" value="" style="line;strokeWidth=1;fillColor=none;align=left;verticalAlign=middle;spacingTop=-1;spacingLeft=3;spacingRight=3;rotatable=0;labelPosition=right;points=[];portConstraint=eastwest;strokeColor=inherit;" parent="6" vertex="1">
                    <mxGeometry y="120" width="210" height="8" as="geometry"/>
                </mxCell>
                <mxCell id="9" value="+ Acreedor ( )&#10;+ Acreedor (int movimiento)&#10;+ setNombre (nombre : string)&#10;+ setApellido (apellido : string)&#10;+ setClave (clave : string)&#10;+ setTelefono (telefono : string)&#10;+ setCorreo (correo : string)&#10;+ setMovimiento (movimiento : int)&#10;+ getNombre( ) : string&#10;+ getApellido( ) : string&#10;+ getClave( ) : string&#10;+ getTelefono( ) : string&#10;+ getCorreo( ) : string&#10;+ getMovimiento( ) : string" style="text;strokeColor=none;fillColor=default;align=left;verticalAlign=top;spacingLeft=4;spacingRight=4;overflow=hidden;rotatable=0;points=[[0,0.5],[1,0.5]];portConstraint=eastwest;" parent="6" vertex="1">
                    <mxGeometry y="128" width="210" height="212" as="geometry"/>
                </mxCell>
            </root>
        </mxGraphModel>
    </diagram>
</mxfile>